<svg width="30" height="30" viewBox="0 0 30 30" fill="none" xmlns="http://www.w3.org/2000/svg">
<rect width="30" height="30" rx="4" fill="#FFEEDB"/>
<path d="M6.40297 2.90021C5.83647 2.90021 5.26854 3.18245 4.9506 3.65814L2.39024 7.23069L2.38563 7.23713L2.38208 7.24422C2.3809 7.24658 2.37969 7.249 2.37845 7.25147C2.35149 7.3052 2.31211 7.38369 2.31211 7.4676V24.9799C2.31211 25.8987 3.04182 26.6287 3.96087 26.6287H25.8513C26.7713 26.6287 27.5 25.8678 27.5 24.9799L27.4998 7.48752C27.512 7.45306 27.5141 7.41949 27.5106 7.38873H27.5649L27.4515 7.23048L24.8902 3.65659L24.8895 3.6557C24.5443 3.18502 24.0088 2.9 23.4388 2.9L17.2439 2.90021H6.40297ZM17.7993 7.51111V12.7522L14.9686 11.2214L14.9206 11.1955L14.8728 11.2218L12.0429 12.781V7.54104L13.1498 3.69576H16.7217L17.7993 7.51111ZM5.59107 4.10054L5.59107 4.10055L5.59161 4.09977C5.77927 3.83174 6.07426 3.69576 6.40323 3.69576H12.3169L11.361 7.06965H3.4704L5.59107 4.10054ZM18.2366 13.4862L18.2451 13.4825L18.2527 13.4775C18.4568 13.3415 18.5952 13.1029 18.5952 12.8582L18.5948 7.86528H26.734L26.7342 24.9798C26.7342 25.4585 26.3343 25.8329 25.8811 25.8329H3.96088C3.48212 25.8329 3.10772 25.433 3.10772 24.9798V7.86528H11.2469V12.8582C11.2469 13.1353 11.3874 13.3431 11.5894 13.4775C11.6989 13.5505 11.8387 13.5836 11.9725 13.5836C12.0779 13.5836 12.2147 13.5501 12.3217 13.4801L14.921 12.0783L17.5232 13.4817C17.7695 13.6217 18.0134 13.5818 18.2366 13.4862ZM23.439 3.69576C23.7621 3.69576 24.061 3.85729 24.2524 4.10227L26.3719 7.06967H18.5111L17.5552 3.69578L23.439 3.69576Z" fill="#DBA362" stroke="#DBA362" stroke-width="0.2"/>
<path d="M12.5381 7.06943H12.4381V7.16943V7.76504V7.86504H12.5381H17.3034H17.4034V7.76504V7.16943V7.06943H17.3034H12.5381Z" fill="#DBA362" stroke="#DBA362" stroke-width="0.2"/>
</svg>
