<svg version="1.0" xmlns="http://www.w3.org/2000/svg"
 width="48.000000pt" height="48.000000pt" viewBox="0 0 48.000000 48.000000"
 preserveAspectRatio="xMidYMid meet">

<g transform="translate(0.000000,48.000000) scale(0.100000,-0.100000)"
fill="#5D6679" stroke="none" stroke-width="1.5">
<path d="M72 409 c-40 -12 -37 -34 3 -34 29 0 29 -1 69 -147 30 -114 43 -148
56 -148 9 0 21 -5 27 -11 16 -16 54 -7 67 16 15 28 20 31 82 44 29 7 56 17 59
22 12 19 -6 49 -29 49 -20 0 -25 8 -36 59 -17 79 -19 83 -59 71 -42 -12 -47
-9 -55 34 l-7 34 -49 -13 c-52 -14 -60 -12 -60 17 0 20 -16 22 -68 7z m78 -86
c12 -49 32 -116 43 -151 13 -42 17 -66 10 -73 -6 -6 -23 40 -50 138 l-40 148
-34 -3 c-51 -4 -16 21 37 27 6 0 21 -38 34 -86z m93 50 c2 -5 7 -20 10 -34 6
-24 3 -26 -38 -36 -44 -10 -44 -10 -55 20 -5 17 -7 34 -3 38 16 15 79 23 86
12z m117 -119 l18 -61 -81 -22 c-44 -12 -83 -18 -87 -14 -4 5 -14 34 -23 65
l-15 57 56 16 c32 9 62 18 67 20 33 13 49 -2 65 -61z m63 -79 c7 -18 5 -19
-63 -39 -48 -14 -56 -14 -69 -1 -18 18 -18 18 49 37 72 20 77 21 83 3z m-143
-50 c20 -24 3 -57 -28 -53 -30 3 -41 30 -22 53 16 19 34 19 50 0z"/>
</g>
</svg>
