<svg width="24" height="24" viewBox="0 0 24 24" fill="none" xmlns="http://www.w3.org/2000/svg">
<mask id="path-1-outside-1_571_624" maskUnits="userSpaceOnUse" x="3" y="1" width="18" height="22" fill="black">
<rect fill="white" x="3" y="1" width="18" height="22"/>
<path d="M12.5651 21.6454H5.09465C4.8466 21.6454 4.64516 21.4398 4.64516 21.187V3.11327C4.64516 2.86058 4.84677 2.65484 5.09465 2.65484H12.5651C12.7432 2.65484 12.8877 2.50813 12.8877 2.32742C12.8877 2.14672 12.7432 2 12.5651 2H5.09465C4.49106 2 4 2.49955 4 3.11328V21.187C4 21.8007 4.49106 22.3003 5.09465 22.3003H12.5651C12.7432 22.3003 12.8877 22.1535 12.8877 21.9728C12.8877 21.7921 12.7433 21.6454 12.5651 21.6454V21.6454ZM20.1499 11.9186L15.7247 7.42719C15.5987 7.29929 15.3946 7.29929 15.2684 7.42719C15.1422 7.55509 15.1424 7.76247 15.2684 7.89036L19.1433 11.8227H8.61245C8.43442 11.8227 8.28987 11.9694 8.28987 12.1501C8.28987 12.3308 8.43442 12.4775 8.61245 12.4775H19.1433L15.2684 16.4103C15.1424 16.5382 15.1424 16.7454 15.2684 16.8734C15.3314 16.9374 15.4136 16.9694 15.4964 16.9694C15.5792 16.9694 15.6617 16.9374 15.7245 16.8734L20.1497 12.382C20.21 12.3208 20.2442 12.2375 20.2442 12.1505C20.2444 12.0633 20.2105 11.9802 20.1499 11.9186V11.9186Z"/>
</mask>
<path d="M12.5651 21.6454H5.09465C4.8466 21.6454 4.64516 21.4398 4.64516 21.187V3.11327C4.64516 2.86058 4.84677 2.65484 5.09465 2.65484H12.5651C12.7432 2.65484 12.8877 2.50813 12.8877 2.32742C12.8877 2.14672 12.7432 2 12.5651 2H5.09465C4.49106 2 4 2.49955 4 3.11328V21.187C4 21.8007 4.49106 22.3003 5.09465 22.3003H12.5651C12.7432 22.3003 12.8877 22.1535 12.8877 21.9728C12.8877 21.7921 12.7433 21.6454 12.5651 21.6454V21.6454ZM20.1499 11.9186L15.7247 7.42719C15.5987 7.29929 15.3946 7.29929 15.2684 7.42719C15.1422 7.55509 15.1424 7.76247 15.2684 7.89036L19.1433 11.8227H8.61245C8.43442 11.8227 8.28987 11.9694 8.28987 12.1501C8.28987 12.3308 8.43442 12.4775 8.61245 12.4775H19.1433L15.2684 16.4103C15.1424 16.5382 15.1424 16.7454 15.2684 16.8734C15.3314 16.9374 15.4136 16.9694 15.4964 16.9694C15.5792 16.9694 15.6617 16.9374 15.7245 16.8734L20.1497 12.382C20.21 12.3208 20.2442 12.2375 20.2442 12.1505C20.2444 12.0633 20.2105 11.9802 20.1499 11.9186V11.9186Z" fill="#5D6679"/>
<path d="M12.5651 21.6454H12.6651V21.5454H12.5651V21.6454ZM12.5651 21.6454H12.4651V21.7454H12.5651V21.6454ZM20.1499 11.9186H20.2499V11.8776L20.2211 11.8484L20.1499 11.9186ZM15.7247 7.42719L15.6535 7.49737L15.6535 7.49737L15.7247 7.42719ZM15.2684 7.42719L15.3396 7.49742L15.3396 7.49742L15.2684 7.42719ZM15.2684 7.89036L15.1971 7.96055L15.1971 7.96055L15.2684 7.89036ZM19.1433 11.8227V11.9227H19.3822L19.2145 11.7525L19.1433 11.8227ZM19.1433 12.4775L19.2145 12.5477L19.3822 12.3775H19.1433V12.4775ZM15.2684 16.4103L15.1971 16.3401L15.1971 16.3401L15.2684 16.4103ZM15.2684 16.8734L15.1971 16.9436L15.1971 16.9436L15.2684 16.8734ZM15.7245 16.8734L15.6533 16.8032L15.6532 16.8034L15.7245 16.8734ZM20.1497 12.382L20.2209 12.4522L20.2209 12.4522L20.1497 12.382ZM20.2442 12.1505L20.1442 12.1503V12.1505H20.2442ZM20.1499 11.9186H20.0499V11.9596L20.0786 11.9888L20.1499 11.9186ZM12.5651 21.5454H5.09465V21.7454H12.5651V21.5454ZM5.09465 21.5454C4.90369 21.5454 4.74516 21.3865 4.74516 21.187H4.54516C4.54516 21.4932 4.7895 21.7454 5.09465 21.7454V21.5454ZM4.74516 21.187V3.11327H4.54516V21.187H4.74516ZM4.74516 3.11327C4.74516 2.91393 4.90387 2.75484 5.09465 2.75484V2.55484C4.78968 2.55484 4.54516 2.80724 4.54516 3.11327H4.74516ZM5.09465 2.75484H12.5651V2.55484H5.09465V2.75484ZM12.5651 2.75484C12.7998 2.75484 12.9877 2.56194 12.9877 2.32742H12.7877C12.7877 2.45431 12.6865 2.55484 12.5651 2.55484V2.75484ZM12.9877 2.32742C12.9877 2.0929 12.7998 1.9 12.5651 1.9V2.1C12.6865 2.1 12.7877 2.20054 12.7877 2.32742H12.9877ZM12.5651 1.9H5.09465V2.1H12.5651V1.9ZM5.09465 1.9C4.43424 1.9 3.9 2.44593 3.9 3.11328H4.1C4.1 2.55317 4.54788 2.1 5.09465 2.1V1.9ZM3.9 3.11328V21.187H4.1V3.11328H3.9ZM3.9 21.187C3.9 21.8543 4.43424 22.4003 5.09465 22.4003V22.2003C4.54788 22.2003 4.1 21.7471 4.1 21.187H3.9ZM5.09465 22.4003H12.5651V22.2003H5.09465V22.4003ZM12.5651 22.4003C12.7998 22.4003 12.9877 22.2074 12.9877 21.9728H12.7877C12.7877 22.0997 12.6865 22.2003 12.5651 22.2003V22.4003ZM12.9877 21.9728C12.9877 21.7383 12.8 21.5454 12.5651 21.5454V21.7454C12.6867 21.7454 12.7877 21.8459 12.7877 21.9728H12.9877ZM12.6651 21.6454V21.6454H12.4651V21.6454H12.6651ZM20.2211 11.8484L15.7959 7.357L15.6535 7.49737L20.0786 11.9888L20.2211 11.8484ZM15.7959 7.357C15.6307 7.18932 15.3625 7.18939 15.1972 7.35696L15.3396 7.49742C15.4266 7.40918 15.5666 7.40925 15.6535 7.49737L15.7959 7.357ZM15.1972 7.35695C15.0325 7.52386 15.0328 7.79378 15.1971 7.96055L15.3396 7.82018C15.2519 7.73115 15.2518 7.58632 15.3396 7.49742L15.1972 7.35695ZM15.1971 7.96055L19.0721 11.8929L19.2145 11.7525L15.3396 7.82017L15.1971 7.96055ZM19.1433 11.7227H8.61245V11.9227H19.1433V11.7227ZM8.61245 11.7227C8.37779 11.7227 8.18987 11.9156 8.18987 12.1501H8.38987C8.38987 12.0232 8.49105 11.9227 8.61245 11.9227V11.7227ZM8.18987 12.1501C8.18987 12.3846 8.37779 12.5775 8.61245 12.5775V12.3775C8.49105 12.3775 8.38987 12.277 8.38987 12.1501H8.18987ZM8.61245 12.5775H19.1433V12.3775H8.61245V12.5775ZM19.072 12.4074L15.1971 16.3401L15.3396 16.4804L19.2145 12.5477L19.072 12.4074ZM15.1971 16.3401C15.0327 16.5069 15.0328 16.7766 15.1971 16.9436L15.3397 16.8033C15.2519 16.7141 15.252 16.5694 15.3396 16.4804L15.1971 16.3401ZM15.1971 16.9436C15.2795 17.0272 15.3877 17.0694 15.4964 17.0694V16.8694C15.4396 16.8694 15.3833 16.8476 15.3396 16.8032L15.1971 16.9436ZM15.4964 17.0694C15.6051 17.0694 15.7136 17.0273 15.7958 16.9435L15.6532 16.8034C15.6098 16.8475 15.5534 16.8694 15.4964 16.8694V17.0694ZM15.7957 16.9436L20.2209 12.4522L20.0785 12.3118L15.6533 16.8032L15.7957 16.9436ZM20.2209 12.4522C20.2998 12.3722 20.3442 12.2636 20.3442 12.1505H20.1442C20.1442 12.2113 20.1202 12.2694 20.0785 12.3118L20.2209 12.4522ZM20.3442 12.1507C20.3444 12.0374 20.3004 11.9289 20.2211 11.8485L20.0786 11.9888C20.1207 12.0315 20.1443 12.0893 20.1442 12.1503L20.3442 12.1507ZM20.2499 11.9186V11.9186H20.0499V11.9186H20.2499Z" fill="#5D6679" mask="url(#path-1-outside-1_571_624)"/>
</svg>
