<svg width="31" height="30" viewBox="0 0 31 30" fill="none" xmlns="http://www.w3.org/2000/svg">
<rect x="0.5" width="30" height="30" rx="4" fill="#EBFFED"/>
<path d="M19.4392 13.0888H13.3066C13.0683 13.0888 12.875 12.9118 12.875 12.6933C12.875 12.4749 13.0682 12.2979 13.3066 12.2979H19.4389C19.6773 12.2979 19.8706 12.4749 19.8706 12.6933C19.8706 12.9118 19.6773 13.0888 19.4391 13.0888H19.4392Z" fill="#58D365" fill-opacity="0.7"/>
<path d="M19.4392 15.9618H13.3066C13.0683 15.9618 12.875 15.7848 12.875 15.5664C12.875 15.348 13.0682 15.1709 13.3066 15.1709H19.4389C19.6773 15.1709 19.8706 15.3479 19.8706 15.5664C19.8706 15.7848 19.6773 15.9618 19.4391 15.9618H19.4392Z" fill="#58D365" fill-opacity="0.7"/>
<path d="M13.3701 18.6496C13.1318 18.6496 12.9385 18.4726 12.9385 18.2541C12.9385 18.0357 13.1317 17.8586 13.3701 17.8586C15.6798 17.8586 17.6309 16.7554 17.6309 15.4496C17.6309 14.1437 15.6797 13.0404 13.3701 13.0404C13.1318 13.0404 12.9385 12.8634 12.9385 12.645C12.9385 12.4266 13.1317 12.2495 13.3701 12.2495C16.2436 12.2495 18.4943 13.6552 18.4943 15.4495C18.4943 17.2438 16.2436 18.6495 13.3701 18.6495V18.6496Z" fill="#58D365" fill-opacity="0.7"/>
<path d="M17.9819 23.3009C17.8669 23.3009 17.7523 23.2591 17.6672 23.1764L13.1093 18.7336C12.946 18.5743 12.9545 18.3241 13.1282 18.1746C13.3019 18.0251 13.5749 18.0329 13.7383 18.1919L18.2962 22.6347C18.4595 22.7939 18.451 23.0442 18.2774 23.1937C18.194 23.2654 18.0878 23.3009 17.9817 23.3009L17.9819 23.3009Z" fill="#58D365" fill-opacity="0.7"/>
<path d="M4.53157 15.2112H6.61537V26.3248C6.61537 26.7138 6.921 27.0194 7.30997 27.0194H25.3695C25.7585 27.0194 26.0641 26.7138 26.0641 26.3248V15.2112H28.1479C28.7592 15.2112 29.0648 14.461 28.6479 14.0166L16.8398 2.20844C16.5618 1.93052 16.1174 1.93052 15.8672 2.20844L4.03176 14.0166C3.61489 14.461 3.92051 15.2112 4.53177 15.2112H4.53157ZM16.3397 3.68089L26.4809 13.822H25.3696C24.9807 13.822 24.675 14.1277 24.675 14.5166V25.6302H8.00466V14.5166C8.00466 14.1277 7.69903 13.822 7.31007 13.822H6.19881L16.3397 3.68089Z" fill="#58D365" fill-opacity="0.7"/>
</svg>
