<svg width="31" height="30" viewBox="0 0 31 30" fill="none" xmlns="http://www.w3.org/2000/svg">
<rect x="0.5" width="30" height="30" rx="4" fill="#E7E5FF"/>
<path d="M11.237 19.3687C11.237 19.1802 11.0869 19.0278 10.9012 19.0278H5.69621C5.51045 19.0278 5.36035 19.1802 5.36035 19.3687C5.36035 19.5573 5.51045 19.7096 5.69621 19.7096H10.9049C11.0866 19.7096 11.2369 19.5573 11.2369 19.3687H11.237Z" fill="#817AF3"/>
<path d="M5.69621 20.4634C5.51045 20.4634 5.36035 20.6157 5.36035 20.8043C5.36035 20.9928 5.51045 21.1452 5.69621 21.1452H8.52574C8.71151 21.1452 8.8616 20.9928 8.8616 20.8043C8.8616 20.6157 8.7115 20.4634 8.52574 20.4634H5.69621Z" fill="#817AF3"/>
<path d="M23.0182 13.1831C20.0464 13.1831 17.6279 15.638 17.6279 18.6543C17.6279 21.6708 20.0465 24.1256 23.0182 24.1256C25.9901 24.1256 28.4086 21.6707 28.4086 18.6543C28.4086 15.638 25.99 13.1831 23.0182 13.1831ZM23.0182 23.4439C20.4178 23.4439 18.2996 21.2938 18.2996 18.6543C18.2996 16.0148 20.4179 13.8648 23.0182 13.8648C25.6187 13.8648 27.7369 16.0149 27.7369 18.6543C27.7371 21.2937 25.6228 23.4439 23.0182 23.4439Z" fill="#817AF3"/>
<path d="M26.2115 16.7328C26.2115 16.3799 26.0771 16.0469 25.8322 15.7981C25.3302 15.2886 24.5082 15.2886 23.9984 15.7981L23.0223 16.7889L22.0422 15.7941C21.5403 15.2927 20.7182 15.2927 20.2125 15.7981C19.9674 16.0469 19.8291 16.3799 19.8291 16.7328C19.8291 17.0857 19.9636 17.4187 20.2125 17.6674L21.1846 18.6582L20.2125 19.6449C19.9674 19.8936 19.8291 20.2266 19.8291 20.5795C19.8291 20.9324 19.9636 21.2615 20.2125 21.5142C20.6788 21.9875 21.5837 21.9875 22.0462 21.5142L23.0223 20.5234L23.9984 21.5142C24.2395 21.7589 24.5754 21.8992 24.9153 21.8992C25.2551 21.8992 25.591 21.7589 25.8321 21.5142C26.0771 21.2654 26.2114 20.9324 26.2114 20.5795C26.2114 20.2266 26.077 19.8936 25.8321 19.6449L24.86 18.6582L25.8321 17.6674C26.0733 17.4148 26.2116 17.0859 26.2116 16.7328L26.2115 16.7328ZM25.3541 17.1821L24.1447 18.4135C24.0143 18.5459 24.0143 18.7625 24.1447 18.8949L25.3541 20.1225C25.4727 20.2429 25.5358 20.4032 25.5358 20.5718C25.5358 20.7402 25.4725 20.9007 25.3541 21.0211C25.1208 21.2578 24.702 21.2578 24.4687 21.0211L23.2556 19.7897C23.1884 19.7215 23.1055 19.6894 23.0185 19.6894C22.9315 19.6894 22.8446 19.7215 22.7814 19.7897L21.5682 21.0211C21.3508 21.2418 20.9003 21.2418 20.6869 21.0211C20.5683 20.9007 20.5012 20.7404 20.5012 20.5718C20.5012 20.4033 20.5683 20.2429 20.6869 20.1225L21.9001 18.8949C21.9634 18.8307 21.9989 18.7426 21.9989 18.6543C21.9989 18.562 21.9634 18.4778 21.9001 18.4137L20.6869 17.1823C20.5683 17.0619 20.5012 16.9016 20.5012 16.733C20.5012 16.5646 20.5683 16.4041 20.6829 16.2837C20.928 16.039 21.3232 16.039 21.5642 16.2796L22.7814 17.511C22.9119 17.6434 23.1253 17.6434 23.2558 17.511L24.4651 16.2835C24.7102 16.0388 25.1094 16.0347 25.3505 16.2835C25.4691 16.4039 25.5322 16.5642 25.5322 16.7328C25.5359 16.9012 25.4725 17.0617 25.3541 17.1821L25.3541 17.1821Z" fill="#817AF3"/>
<path d="M18.7934 23.1833H6.02066C4.94977 23.1833 4.08028 22.3008 4.08028 21.2138V7.65558C4.08028 6.56861 4.94977 5.68607 6.02066 5.68607H10.1425V9.90601C10.1425 10.1788 10.2808 10.4194 10.514 10.5559C10.6287 10.624 10.7551 10.6561 10.8816 10.6561C11.008 10.6561 11.1384 10.6201 11.2531 10.5518L12.743 9.66538C12.7628 9.65337 12.7905 9.65337 12.8101 9.66538L14.3 10.5479C14.5292 10.6844 14.8098 10.6883 15.039 10.552C15.2723 10.4155 15.4106 10.1749 15.4106 9.90213L15.4104 5.682H19.5322C20.6031 5.682 21.4766 6.56455 21.4766 7.65152V12.2766C21.4766 12.4652 21.6267 12.6175 21.8125 12.6175C21.9982 12.6175 22.1483 12.4652 22.1483 12.2766L22.1485 7.65152C22.1485 6.18743 20.9748 5 19.5324 5L6.0205 5.00018C4.57807 5.00018 3.4082 6.19149 3.4082 7.6517V21.21C3.4082 22.674 4.58189 23.8615 6.0205 23.8615L18.7932 23.8613C18.979 23.8613 19.1291 23.7089 19.1291 23.5204C19.1293 23.3357 18.979 23.1834 18.7932 23.1834L18.7934 23.1833ZM14.7388 9.90213C14.7388 9.92614 14.727 9.94627 14.7072 9.95827C14.6835 9.97027 14.6637 9.97027 14.64 9.95827L13.1501 9.07572C13.0355 9.00758 12.9051 8.97139 12.7786 8.97139C12.6482 8.97139 12.5217 9.0074 12.4071 9.07572L10.9172 9.96215C10.8974 9.97415 10.8737 9.97415 10.8501 9.96215C10.8264 9.95014 10.8184 9.93001 10.8184 9.90601V5.68219H14.7427V9.90213H14.7388Z" fill="#817AF3"/>
<path d="M14.1857 18.4377H16.6439C16.8296 18.4377 16.9797 18.2853 16.9797 18.0968C16.9797 17.9082 16.8296 17.7559 16.6439 17.7559H14.1857C13.7114 17.7559 13.3242 18.149 13.3242 18.6343V20.6401C13.3242 21.1215 13.7116 21.5145 14.1857 21.5145H17.118C17.3038 21.5145 17.4539 21.3621 17.4539 21.1736C17.4539 20.985 17.3038 20.8327 17.118 20.8327H14.1857C14.0829 20.8327 13.9999 20.7485 13.9999 20.6441V18.6384C13.9999 18.5259 14.0829 18.4377 14.1857 18.4377Z" fill="#817AF3"/>
</svg>
