<svg width="24" height="24" viewBox="0 0 24 24" fill="none" xmlns="http://www.w3.org/2000/svg">
<g clip-path="url(#clip0_571_236)">
<path d="M11.9997 14.4999C13.3804 14.4999 14.4997 13.3806 14.4997 11.9999C14.4997 10.6192 13.3804 9.49992 11.9997 9.49992C10.619 9.49992 9.49967 10.6192 9.49967 11.9999C9.49967 13.3806 10.619 14.4999 11.9997 14.4999Z" stroke="#5D6679" stroke-width="1.2" stroke-linecap="round" stroke-linejoin="round"/>
<path d="M18.1663 14.4999C18.0554 14.7513 18.0223 15.0301 18.0713 15.3004C18.1204 15.5707 18.2492 15.8202 18.4413 16.0166L18.4913 16.0666C18.6463 16.2214 18.7692 16.4052 18.8531 16.6075C18.937 16.8098 18.9802 17.0267 18.9802 17.2458C18.9802 17.4648 18.937 17.6817 18.8531 17.884C18.7692 18.0863 18.6463 18.2701 18.4913 18.4249C18.3366 18.5799 18.1527 18.7028 17.9504 18.7867C17.7481 18.8706 17.5312 18.9137 17.3122 18.9137C17.0931 18.9137 16.8763 18.8706 16.6739 18.7867C16.4716 18.7028 16.2878 18.5799 16.133 18.4249L16.083 18.3749C15.8866 18.1828 15.6372 18.0539 15.3668 18.0049C15.0965 17.9559 14.8177 17.989 14.5663 18.0999C14.3199 18.2056 14.1097 18.381 13.9616 18.6045C13.8135 18.8281 13.7341 19.0901 13.733 19.3583V19.4999C13.733 19.9419 13.5574 20.3659 13.2449 20.6784C12.9323 20.991 12.5084 21.1666 12.0663 21.1666C11.6243 21.1666 11.2004 20.991 10.8878 20.6784C10.5753 20.3659 10.3997 19.9419 10.3997 19.4999V19.4249C10.3932 19.1491 10.3039 18.8816 10.1434 18.6572C9.98293 18.4328 9.75862 18.2618 9.49967 18.1666C9.24833 18.0557 8.96951 18.0226 8.69918 18.0716C8.42885 18.1206 8.17941 18.2495 7.98301 18.4416L7.93301 18.4916C7.77822 18.6465 7.5944 18.7695 7.39207 18.8533C7.18974 18.9372 6.97287 18.9804 6.75384 18.9804C6.53481 18.9804 6.31794 18.9372 6.11561 18.8533C5.91328 18.7695 5.72946 18.6465 5.57467 18.4916C5.41971 18.3368 5.29678 18.153 5.21291 17.9507C5.12903 17.7483 5.08586 17.5314 5.08586 17.3124C5.08586 17.0934 5.12903 16.8765 5.21291 16.6742C5.29678 16.4719 5.41971 16.288 5.57467 16.1332L5.62467 16.0833C5.81679 15.8869 5.94566 15.6374 5.99468 15.3671C6.04369 15.0967 6.0106 14.8179 5.89967 14.5666C5.79404 14.3201 5.61864 14.1099 5.39506 13.9618C5.17149 13.8138 4.9095 13.7343 4.64134 13.7333H4.49967C4.05765 13.7333 3.63372 13.5577 3.32116 13.2451C3.0086 12.9325 2.83301 12.5086 2.83301 12.0666C2.83301 11.6246 3.0086 11.2006 3.32116 10.8881C3.63372 10.5755 4.05765 10.3999 4.49967 10.3999H4.57467C4.8505 10.3935 5.11801 10.3042 5.34242 10.1437C5.56684 9.98317 5.73777 9.75886 5.83301 9.49992C5.94394 9.24857 5.97703 8.96976 5.92801 8.69943C5.879 8.4291 5.75012 8.17965 5.55801 7.98325L5.50801 7.93325C5.35305 7.77846 5.23012 7.59465 5.14624 7.39232C5.06237 7.18999 5.0192 6.97311 5.0192 6.75408C5.0192 6.53506 5.06237 6.31818 5.14624 6.11585C5.23012 5.91352 5.35305 5.72971 5.50801 5.57492C5.6628 5.41996 5.84661 5.29703 6.04894 5.21315C6.25127 5.12928 6.46815 5.08611 6.68717 5.08611C6.9062 5.08611 7.12308 5.12928 7.32541 5.21315C7.52774 5.29703 7.71155 5.41996 7.86634 5.57492L7.91634 5.62492C8.11274 5.81703 8.36219 5.94591 8.63252 5.99492C8.90285 6.04394 9.18166 6.01085 9.43301 5.89992H9.49967C9.74615 5.79428 9.95635 5.61888 10.1044 5.39531C10.2525 5.17173 10.3319 4.90974 10.333 4.64159V4.49992C10.333 4.05789 10.5086 3.63397 10.8212 3.32141C11.1337 3.00885 11.5576 2.83325 11.9997 2.83325C12.4417 2.83325 12.8656 3.00885 13.1782 3.32141C13.4907 3.63397 13.6663 4.05789 13.6663 4.49992V4.57492C13.6674 4.84307 13.7469 5.10506 13.8949 5.32864C14.043 5.55221 14.2532 5.72762 14.4997 5.83325C14.751 5.94418 15.0298 5.97727 15.3002 5.92826C15.5705 5.87924 15.8199 5.75037 16.0163 5.55825L16.0663 5.50825C16.2211 5.35329 16.4049 5.23036 16.6073 5.14649C16.8096 5.06261 17.0265 5.01944 17.2455 5.01944C17.4645 5.01944 17.6814 5.06261 17.8837 5.14649C18.0861 5.23036 18.2699 5.35329 18.4247 5.50825C18.5796 5.66304 18.7026 5.84685 18.7864 6.04918C18.8703 6.25151 18.9135 6.46839 18.9135 6.68742C18.9135 6.90644 18.8703 7.12332 18.7864 7.32565C18.7026 7.52798 18.5796 7.7118 18.4247 7.86658L18.3747 7.91658C18.1826 8.11298 18.0537 8.36243 18.0047 8.63276C17.9557 8.90309 17.9887 9.1819 18.0997 9.43325V9.49992C18.2053 9.74639 18.3807 9.9566 18.6043 10.1047C18.8279 10.2527 19.0899 10.3322 19.358 10.3333H19.4997C19.9417 10.3333 20.3656 10.5088 20.6782 10.8214C20.9907 11.134 21.1663 11.5579 21.1663 11.9999C21.1663 12.4419 20.9907 12.8659 20.6782 13.1784C20.3656 13.491 19.9417 13.6666 19.4997 13.6666H19.4247C19.1565 13.6677 18.8945 13.7471 18.671 13.8952C18.4474 14.0432 18.272 14.2534 18.1663 14.4999Z" stroke="#5D6679" stroke-width="1.2" stroke-linecap="round" stroke-linejoin="round"/>
</g>
<defs>
<clipPath id="clip0_571_236">
<rect width="20" height="20" fill="white" transform="translate(2 2)"/>
</clipPath>
</defs>
</svg>
