<svg width="30" height="30" viewBox="0 0 30 30" fill="none" xmlns="http://www.w3.org/2000/svg">
<rect width="30" height="30" rx="4" fill="#E7E5FF"/>
<path fill-rule="evenodd" clip-rule="evenodd" d="M6.68919 2C5.75621 2 5 2.75621 5 3.68919V25.3108C5 26.2438 5.75621 27 6.68919 27H22.9054C23.8384 27 24.5946 26.2438 24.5946 25.3108V3.68919C24.5946 2.75621 23.8384 2 22.9054 2H6.68919ZM9.48619 2.67562H6.68919C6.12927 2.67562 5.67561 3.12925 5.67561 3.68919V25.3108C5.67561 25.8707 6.12925 26.3244 6.68919 26.3244H22.9054C23.4653 26.3244 23.919 25.8707 23.919 25.3108V3.68919C23.919 3.12927 23.4653 2.67562 22.9054 2.67562H20.1084L19.6637 4.00965C19.5259 4.42347 19.1384 4.7027 18.7022 4.7027H10.8927C10.4565 4.7027 10.0691 4.42345 9.93122 4.00965L9.48619 2.67562ZM19.3963 2.67562H10.1987L10.5722 3.79591C10.6181 3.93401 10.7473 4.02685 10.8927 4.02685H18.7022C18.8476 4.02685 18.9767 3.934 19.0226 3.79591L19.3963 2.67562Z" fill="#817AF3" fill-opacity="0.8"/>
<path fill-rule="evenodd" clip-rule="evenodd" d="M8.04102 9.43252C8.04102 8.87284 8.49465 8.41895 9.05459 8.41895H10.4058C10.9657 8.41895 11.4194 8.87282 11.4194 9.43252V10.7837C11.4194 11.3437 10.9658 11.7973 10.4058 11.7973H9.05459C8.49467 11.7973 8.04102 11.3437 8.04102 10.7837V9.43252ZM9.05459 9.09459C8.86795 9.09459 8.71666 9.24588 8.71666 9.43252V10.7837C8.71666 10.9704 8.86795 11.1217 9.05459 11.1217H10.4058C10.5925 11.1217 10.7438 10.9704 10.7438 10.7837V9.43252C10.7438 9.24588 10.5925 9.09459 10.4058 9.09459H9.05459Z" fill="#817AF3" fill-opacity="0.8"/>
<path fill-rule="evenodd" clip-rule="evenodd" d="M8.04102 14.4999C8.04102 13.9402 8.49465 13.4863 9.05459 13.4863H10.4058C10.9657 13.4863 11.4194 13.9402 11.4194 14.4999V15.8511C11.4194 16.4111 10.9658 16.8647 10.4058 16.8647H9.05459C8.49467 16.8647 8.04102 16.4111 8.04102 15.8511V14.4999ZM9.05459 14.162C8.86795 14.162 8.71666 14.3133 8.71666 14.4999V15.8511C8.71666 16.0378 8.86795 16.1891 9.05459 16.1891H10.4058C10.5925 16.1891 10.7438 16.0378 10.7438 15.8511V14.4999C10.7438 14.3133 10.5925 14.162 10.4058 14.162H9.05459Z" fill="#817AF3" fill-opacity="0.8"/>
<path fill-rule="evenodd" clip-rule="evenodd" d="M8.04102 19.5673C8.04102 19.0076 8.49465 18.5537 9.05459 18.5537H10.4058C10.9657 18.5537 11.4194 19.0076 11.4194 19.5673V20.9185C11.4194 21.4784 10.9658 21.9321 10.4058 21.9321H9.05459C8.49467 21.9321 8.04102 21.4785 8.04102 20.9185V19.5673ZM9.05459 19.2294C8.86795 19.2294 8.71666 19.3806 8.71666 19.5673V20.9185C8.71666 21.1052 8.86795 21.2565 9.05459 21.2565H10.4058C10.5925 21.2565 10.7438 21.1052 10.7438 20.9185V19.5673C10.7438 19.3806 10.5925 19.2294 10.4058 19.2294H9.05459Z" fill="#817AF3" fill-opacity="0.8"/>
<path fill-rule="evenodd" clip-rule="evenodd" d="M12.7705 10.1082C12.7705 9.92156 12.9218 9.77051 13.1084 9.77051H21.5544C21.741 9.77051 21.8923 9.92156 21.8923 10.1082C21.8923 10.2949 21.741 10.4461 21.5544 10.4461H13.1084C12.9218 10.4461 12.7705 10.2949 12.7705 10.1082Z" fill="#817AF3" fill-opacity="0.8"/>
<path fill-rule="evenodd" clip-rule="evenodd" d="M12.7705 15.1756C12.7705 14.9889 12.9218 14.8379 13.1084 14.8379H21.5544C21.741 14.8379 21.8923 14.9889 21.8923 15.1756C21.8923 15.3622 21.741 15.5135 21.5544 15.5135H13.1084C12.9218 15.5135 12.7705 15.3622 12.7705 15.1756Z" fill="#817AF3" fill-opacity="0.8"/>
<path fill-rule="evenodd" clip-rule="evenodd" d="M12.7705 20.243C12.7705 20.0563 12.9218 19.9053 13.1084 19.9053H21.5544C21.741 19.9053 21.8923 20.0563 21.8923 20.243C21.8923 20.4296 21.741 20.5809 21.5544 20.5809H13.1084C12.9218 20.5809 12.7705 20.4296 12.7705 20.243Z" fill="#817AF3" fill-opacity="0.8"/>
</svg>
